<svg width="20" height="20" viewBox="0 0 20 20" fill="none" xmlns="http://www.w3.org/2000/svg">
<path d="M10 4C10.2652 4 10.5196 3.89464 10.7071 3.70711C10.8946 3.51957 11 3.26522 11 3V1C11 0.734784 10.8946 0.48043 10.7071 0.292893C10.5196 0.105357 10.2652 0 10 0C9.73478 0 9.48043 0.105357 9.29289 0.292893C9.10536 0.48043 9 0.734784 9 1V3C9 3.26522 9.10536 3.51957 9.29289 3.70711C9.48043 3.89464 9.73478 4 10 4ZM19 9H17C16.7348 9 16.4804 9.10536 16.2929 9.29289C16.1054 9.48043 16 9.73478 16 10C16 10.2652 16.1054 10.5196 16.2929 10.7071C16.4804 10.8946 16.7348 11 17 11H19C19.2652 11 19.5196 10.8946 19.7071 10.7071C19.8946 10.5196 20 10.2652 20 10C20 9.73478 19.8946 9.48043 19.7071 9.29289C19.5196 9.10536 19.2652 9 19 9ZM4 10C4 9.73478 3.89464 9.48043 3.70711 9.29289C3.51957 9.10536 3.26522 9 3 9H1C0.734784 9 0.48043 9.10536 0.292893 9.29289C0.105357 9.48043 0 9.73478 0 10C0 10.2652 0.105357 10.5196 0.292893 10.7071C0.48043 10.8946 0.734784 11 1 11H3C3.26522 11 3.51957 10.8946 3.70711 10.7071C3.89464 10.5196 4 10.2652 4 10ZM4.22 3C4.02507 2.81567 3.76489 2.71634 3.49672 2.72384C3.22854 2.73134 2.97433 2.84507 2.79 3.04C2.60567 3.23493 2.50634 3.49511 2.51384 3.76328C2.52134 4.03146 2.63507 4.28567 2.83 4.47L4.27 5.86C4.36663 5.95331 4.48108 6.02619 4.6065 6.0743C4.73192 6.12241 4.86575 6.14475 5 6.14C5.1347 6.13949 5.26792 6.11176 5.39164 6.05849C5.51537 6.00522 5.62705 5.9275 5.72 5.83C5.90625 5.64264 6.01079 5.38919 6.01079 5.125C6.01079 4.86081 5.90625 4.60736 5.72 4.42L4.22 3ZM15 6.14C15.2575 6.13898 15.5046 6.03868 15.69 5.86L17.13 4.47C17.3057 4.28645 17.4049 4.04292 17.4075 3.78887C17.4101 3.53482 17.3159 3.2893 17.1441 3.10217C16.9722 2.91504 16.7356 2.80034 16.4822 2.78137C16.2289 2.76239 15.9778 2.84056 15.78 3L14.34 4.42C14.1537 4.60736 14.0492 4.86081 14.0492 5.125C14.0492 5.38919 14.1537 5.64264 14.34 5.83C14.5131 6.01272 14.7488 6.12342 15 6.14ZM10 16C9.73478 16 9.48043 16.1054 9.29289 16.2929C9.10536 16.4804 9 16.7348 9 17V19C9 19.2652 9.10536 19.5196 9.29289 19.7071C9.48043 19.8946 9.73478 20 10 20C10.2652 20 10.5196 19.8946 10.7071 19.7071C10.8946 19.5196 11 19.2652 11 19V17C11 16.7348 10.8946 16.4804 10.7071 16.2929C10.5196 16.1054 10.2652 16 10 16ZM15.73 14.14C15.539 13.9557 15.2827 13.8548 15.0173 13.8594C14.752 13.8641 14.4993 13.974 14.315 14.165C14.1307 14.356 14.0298 14.6123 14.0344 14.8777C14.0391 15.143 14.149 15.3957 14.34 15.58L15.78 17C15.9654 17.1787 16.2125 17.279 16.47 17.28C16.604 17.2808 16.7368 17.2546 16.8605 17.2031C16.9841 17.1516 17.0962 17.0757 17.19 16.98C17.2837 16.887 17.3581 16.7764 17.4089 16.6546C17.4597 16.5327 17.4858 16.402 17.4858 16.27C17.4858 16.138 17.4597 16.0073 17.4089 15.8854C17.3581 15.7636 17.2837 15.653 17.19 15.56L15.73 14.14ZM4.27 14.14L2.83 15.53C2.73627 15.623 2.66188 15.7336 2.61111 15.8554C2.56034 15.9773 2.5342 16.108 2.5342 16.24C2.5342 16.372 2.56034 16.5027 2.61111 16.6246C2.66188 16.7464 2.73627 16.857 2.83 16.95C2.92379 17.0457 3.03586 17.1216 3.15954 17.1731C3.28323 17.2246 3.41601 17.2508 3.55 17.25C3.79651 17.2521 4.03512 17.1631 4.22 17L5.66 15.61C5.85096 15.4257 5.96087 15.173 5.96556 14.9077C5.97024 14.6423 5.86933 14.386 5.685 14.195C5.50067 14.004 5.24804 13.8941 4.98268 13.8894C4.71731 13.8848 4.46096 13.9857 4.27 14.17V14.14ZM10 6C9.20887 6 8.43552 6.2346 7.77772 6.67412C7.11992 7.11365 6.60723 7.73836 6.30448 8.46927C6.00173 9.20017 5.92252 10.0044 6.07686 10.7804C6.2312 11.5563 6.61216 12.269 7.17157 12.8284C7.73098 13.3878 8.44372 13.7688 9.21964 13.9231C9.99556 14.0775 10.7998 13.9983 11.5307 13.6955C12.2616 13.3928 12.8864 12.8801 13.3259 12.2223C13.7654 11.5645 14 10.7911 14 10C14 8.93913 13.5786 7.92172 12.8284 7.17157C12.0783 6.42143 11.0609 6 10 6Z" fill="#0090FC"/>
</svg>
